<svg xmlns="http://www.w3.org/2000/svg" viewBox="0 0 64 64">
  <defs>
    <linearGradient id="bg" x1="0" y1="0" x2="1" y2="1">
      <stop offset="0" stop-color="#10171d" />
      <stop offset="1" stop-color="#2b1e14" />
    </linearGradient>
    <radialGradient id="ballGlow" cx="50%" cy="50%" r="60%">
      <stop offset="0" stop-color="#cf9cff" />
      <stop offset="1" stop-color="#5f2f8f" />
    </radialGradient>
    <linearGradient id="hull" x1="0" y1="0" x2="1" y2="1">
      <stop offset="0" stop-color="#a5abae" />
      <stop offset="1" stop-color="#5a5f63" />
    </linearGradient>
    <linearGradient id="nose" x1="0" y1="0" x2="1" y2="0">
      <stop offset="0" stop-color="#f08d3b" />
      <stop offset="1" stop-color="#c65722" />
    </linearGradient>
  </defs>

  <rect width="64" height="64" rx="13" fill="url(#bg)" />
  <circle cx="48" cy="18" r="10" fill="#401c5f" opacity="0.45" />
  <circle cx="48" cy="18" r="7.3" fill="url(#ballGlow)" />
  <circle cx="48" cy="18" r="3.1" fill="#f0d6ff" opacity="0.8" />

  <g transform="translate(8 19) rotate(-12 20 14)">
    <path d="M4 18 L18 7 L41 10 L44 19 L27 24 L8 22 Z" fill="url(#hull)" stroke="#1a1f24" stroke-width="1.4" />
    <path d="M4 18 L16 10 L21 11 L13 20 Z" fill="url(#nose)" />
    <rect x="22" y="12" width="12" height="3.5" rx="1.7" fill="#f2d266" />
    <path d="M36 17 L50 13" stroke="#f0d16f" stroke-width="1.6" stroke-linecap="round" />
    <circle cx="51.2" cy="12.8" r="1.9" fill="#f0d16f" />
    <path d="M41.5 15.5 L44.8 15.5 L46 18.4 L42.8 19 Z" fill="#6f7479" />
  </g>

  <rect x="4" y="4" width="56" height="56" rx="11" fill="none" stroke="#bc8f63" stroke-opacity="0.45" />
</svg>
