<svg xmlns="http://www.w3.org/2000/svg" width="1024" height="1024" viewBox="0 0 1024 1024">
  <defs>
    <pattern id="plate" width="160" height="160" patternUnits="userSpaceOnUse">
      <rect width="160" height="160" fill="#7e473b"/>
      <rect x="5" y="5" width="150" height="150" fill="none" stroke="#3a2620" stroke-width="2" opacity="0.58"/>
      <rect x="20" y="18" width="118" height="30" fill="#935645" opacity="0.72"/>
      <rect x="20" y="56" width="56" height="24" fill="#6c4034" opacity="0.6"/>
      <rect x="84" y="56" width="54" height="24" fill="#b17e59" opacity="0.44"/>
      <rect x="20" y="90" width="34" height="54" fill="#4c3128" opacity="0.5"/>
      <rect x="60" y="90" width="78" height="54" fill="#7c5142" opacity="0.56"/>
      <circle cx="15" cy="15" r="2" fill="#d9bf95" opacity="0.5"/>
      <circle cx="145" cy="15" r="2" fill="#d9bf95" opacity="0.5"/>
      <circle cx="15" cy="145" r="2" fill="#d9bf95" opacity="0.5"/>
      <circle cx="145" cy="145" r="2" fill="#d9bf95" opacity="0.5"/>
    </pattern>
    <filter id="grime" x="-20%" y="-20%" width="140%" height="140%">
      <feTurbulence type="fractalNoise" baseFrequency="0.75" numOctaves="4" seed="23"/>
      <feColorMatrix type="matrix" values="1 0 0 0 0 0 1 0 0 0 0 0 1 0 0 0 0 0 0.3 0"/>
    </filter>
    <pattern id="streaks" width="220" height="220" patternUnits="userSpaceOnUse">
      <path d="M10 0 L56 220" stroke="#e0b98d" stroke-width="1.2" opacity="0.12"/>
      <path d="M72 0 L112 220" stroke="#2a1c17" stroke-width="1" opacity="0.2"/>
      <path d="M150 0 L194 220" stroke="#cb9b67" stroke-width="1" opacity="0.1"/>
    </pattern>
  </defs>
  <rect width="1024" height="1024" fill="url(#plate)"/>
  <rect width="1024" height="1024" filter="url(#grime)" opacity="0.68"/>
  <rect width="1024" height="1024" fill="url(#streaks)"/>
</svg>
