<svg xmlns="http://www.w3.org/2000/svg" width="1024" height="1024" viewBox="0 0 1024 1024">
  <defs>
    <linearGradient id="base" x1="0" y1="0" x2="1" y2="1">
      <stop offset="0%" stop-color="#5f6d79"/>
      <stop offset="50%" stop-color="#4d5a66"/>
      <stop offset="100%" stop-color="#3a4550"/>
    </linearGradient>
    <pattern id="panels" width="176" height="176" patternUnits="userSpaceOnUse">
      <rect width="176" height="176" fill="none"/>
      <rect x="5" y="5" width="166" height="166" fill="none" stroke="#29313a" stroke-width="2" opacity="0.62"/>
      <rect x="16" y="16" width="144" height="34" fill="#70808d" opacity="0.48"/>
      <rect x="16" y="56" width="62" height="28" fill="#43515d" opacity="0.56"/>
      <rect x="84" y="56" width="76" height="28" fill="#7a8b99" opacity="0.38"/>
      <rect x="16" y="92" width="42" height="70" fill="#3f4b56" opacity="0.6"/>
      <rect x="64" y="92" width="96" height="70" fill="#667785" opacity="0.42"/>
      <circle cx="14" cy="14" r="2" fill="#b9c9d6" opacity="0.55"/>
      <circle cx="162" cy="14" r="2" fill="#b9c9d6" opacity="0.55"/>
      <circle cx="14" cy="162" r="2" fill="#b9c9d6" opacity="0.55"/>
      <circle cx="162" cy="162" r="2" fill="#b9c9d6" opacity="0.55"/>
    </pattern>
    <pattern id="brushed" width="144" height="144" patternUnits="userSpaceOnUse">
      <path d="M0 18 L144 18" stroke="#8ea0ad" stroke-width="1" opacity="0.1"/>
      <path d="M0 72 L144 72" stroke="#2c353d" stroke-width="1" opacity="0.14"/>
      <path d="M0 121 L144 121" stroke="#9eb1be" stroke-width="1" opacity="0.08"/>
    </pattern>
    <filter id="grain" x="-20%" y="-20%" width="140%" height="140%">
      <feTurbulence type="fractalNoise" baseFrequency="0.72" numOctaves="4" seed="52"/>
      <feComponentTransfer>
        <feFuncA type="table" tableValues="0 0.32"/>
      </feComponentTransfer>
    </filter>
  </defs>
  <rect width="1024" height="1024" fill="url(#base)"/>
  <rect width="1024" height="1024" fill="url(#panels)"/>
  <rect width="1024" height="1024" fill="url(#brushed)"/>
  <rect width="1024" height="1024" filter="url(#grain)"/>
</svg>
