<svg xmlns="http://www.w3.org/2000/svg" width="1024" height="1024" viewBox="0 0 1024 1024">
  <defs>
    <linearGradient id="base" x1="0" y1="0" x2="1" y2="1">
      <stop offset="0%" stop-color="#7a4e39"/>
      <stop offset="45%" stop-color="#6a4331"/>
      <stop offset="100%" stop-color="#4f3226"/>
    </linearGradient>
    <pattern id="plates" width="192" height="192" patternUnits="userSpaceOnUse">
      <rect width="192" height="192" fill="none"/>
      <rect x="6" y="6" width="180" height="180" fill="none" stroke="#2f1f19" stroke-width="2" opacity="0.58"/>
      <rect x="18" y="20" width="70" height="34" fill="#8d5a43" opacity="0.68"/>
      <rect x="98" y="20" width="76" height="34" fill="#5b3a2d" opacity="0.62"/>
      <rect x="18" y="64" width="156" height="50" fill="#734a37" opacity="0.5"/>
      <rect x="18" y="120" width="46" height="52" fill="#5d3b2e" opacity="0.58"/>
      <rect x="70" y="120" width="104" height="52" fill="#91654d" opacity="0.46"/>
      <circle cx="14" cy="14" r="2.2" fill="#d4b08a" opacity="0.55"/>
      <circle cx="178" cy="14" r="2.2" fill="#d4b08a" opacity="0.55"/>
      <circle cx="14" cy="178" r="2.2" fill="#d4b08a" opacity="0.55"/>
      <circle cx="178" cy="178" r="2.2" fill="#d4b08a" opacity="0.55"/>
    </pattern>
    <pattern id="streaks" width="256" height="256" patternUnits="userSpaceOnUse">
      <path d="M-8 20 L224 176" stroke="#ae7f60" stroke-width="1.6" opacity="0.14"/>
      <path d="M32 -12 L204 248" stroke="#2d1d16" stroke-width="1.1" opacity="0.22"/>
      <path d="M118 -20 L170 260" stroke="#c89a6f" stroke-width="1" opacity="0.12"/>
    </pattern>
    <filter id="grime" x="-20%" y="-20%" width="140%" height="140%">
      <feTurbulence type="fractalNoise" baseFrequency="0.7" numOctaves="4" seed="37"/>
      <feComponentTransfer>
        <feFuncA type="table" tableValues="0 0.36"/>
      </feComponentTransfer>
    </filter>
  </defs>
  <rect width="1024" height="1024" fill="url(#base)"/>
  <rect width="1024" height="1024" fill="url(#plates)"/>
  <rect width="1024" height="1024" fill="url(#streaks)"/>
  <rect width="1024" height="1024" filter="url(#grime)"/>
</svg>
